<svg version="1.1" id="Layer_1" xmlns="http://www.w3.org/2000/svg" xmlns:xlink="http://www.w3.org/1999/xlink" x="0px" y="0px"
	 width="100%" viewBox="0 0 527 920" enable-background="new 0 0 527 920" xml:space="preserve">
<path fill="#EEA2A0" opacity="1.000000" stroke="none" 
	d="
M0.999996,574.468384 
	C2.000025,571.344421 3.208947,568.746582 3.961069,566.022522 
	C6.251703,557.726440 8.109125,549.303589 10.609617,541.074219 
	C14.324636,528.847839 19.313948,516.941101 22.120117,504.527466 
	C24.367268,494.586761 23.958300,484.068787 25.160751,473.857941 
	C25.684196,469.412994 27.563496,465.141602 28.311182,460.704437 
	C28.820786,457.680237 28.235445,454.489136 28.484612,451.400482 
	C29.872786,434.192810 37.663204,419.582458 47.612045,406.030823 
	C56.369652,394.101776 65.471550,382.416077 74.694839,370.840790 
	C84.949936,357.970642 91.335526,343.163483 96.080208,327.705139 
	C103.713211,302.836487 116.517624,280.398285 128.010315,257.334625 
	C129.358765,254.628525 131.752060,252.443115 133.660980,250.016327 
	C134.157394,250.301559 134.653793,250.586807 135.150208,250.872040 
	C127.370148,267.102112 118.260849,282.852478 112.182510,299.696625 
	C106.058609,316.667023 102.945915,334.724030 98.513863,352.304932 
	C99.080605,352.497528 99.647354,352.690125 100.214096,352.882751 
	C102.831657,346.347046 105.355042,339.771729 108.085999,333.283752 
	C114.138969,318.903687 119.032845,303.837891 126.778259,290.425507 
	C134.030273,277.867462 140.046906,265.323822 143.167145,251.171524 
	C144.281845,246.115601 146.808105,241.057800 149.813690,236.792694 
	C157.675491,225.636414 162.491180,213.086838 167.616013,200.651917 
	C174.963837,182.823242 185.611435,167.556915 200.176392,154.653625 
	C211.295181,144.803360 219.757248,132.417648 226.787338,119.318062 
	C233.762390,106.321068 241.572830,93.777275 252.313507,83.834335 
	C260.365021,76.380821 270.456512,71.142548 279.568542,64.815414 
	C282.081024,63.070827 284.305847,60.916943 286.728119,59.035076 
	C287.736267,58.251846 288.835968,57.419907 290.029175,57.067013 
	C303.610229,53.050434 317.351044,50.015629 331.634674,49.998413 
	C340.945740,49.987190 347.473663,45.649433 350.692505,36.728237 
	C351.538879,34.382504 352.500427,32.068634 353.186493,29.676302 
	C358.524353,11.062418 372.894043,3.481179 389.084015,3.044574 
	C395.214111,2.879260 401.327576,2.097485 407.724304,1.298352 
	C412.689240,1.000000 417.378510,1.000000 422.533875,1.000000 
	C430.873260,3.767494 435.272614,9.452519 438.687164,17.022577 
	C442.046234,24.469629 447.205597,31.122259 451.786621,37.982162 
	C452.501099,39.052105 454.276581,39.615532 455.674774,39.990967 
	C460.949493,41.407257 466.251282,42.740704 471.588623,43.893551 
	C472.957581,44.189247 474.655396,44.079254 475.927612,43.525280 
	C484.261444,39.896358 492.578613,39.741791 501.494507,43.395649 
	C502.249573,43.559532 502.487457,43.510342 502.725372,43.461151 
	C502.534027,43.261501 502.342682,43.061848 502.151337,42.862194 
	C502.830994,42.765469 503.985443,42.386810 504.120148,42.613693 
	C506.791748,47.112762 509.437714,51.633373 511.871735,56.263748 
	C512.698486,57.836468 512.930481,59.721836 513.527527,61.786968 
	C517.389832,60.477600 519.317566,62.380280 520.398315,65.848854 
	C520.887695,67.419479 521.648132,68.956467 522.544800,70.340828 
	C526.972839,77.177650 527.742554,83.402092 520.704346,89.321793 
	C519.326660,90.480530 519.666260,93.680992 519.477295,94.624245 
	C516.413147,97.907722 513.434387,100.221039 511.592468,103.230255 
	C504.746307,114.415169 500.182831,126.565315 499.298279,139.695862 
	C499.053009,143.336639 500.517426,147.698135 502.599182,150.783066 
	C510.680420,162.758774 511.753662,176.218307 511.720978,189.913651 
	C511.706604,195.943771 510.677917,201.971451 509.989655,209.274261 
	C507.794769,204.657608 506.187775,201.277451 504.137299,196.964508 
	C504.470734,202.088120 504.878906,206.154175 504.970276,210.227341 
	C505.156281,218.520248 500.960052,224.808670 495.207916,230.185760 
	C486.872192,237.977951 480.976929,247.215469 477.705902,258.675476 
	C477.530304,259.523193 477.548309,259.918823 477.566315,260.314484 
	C477.712341,259.877808 477.858368,259.441132 478.004425,259.004456 
	C479.210754,258.235535 480.417084,257.466614 482.459961,256.164490 
	C482.459961,261.636505 483.016083,266.368530 482.373260,270.931641 
	C476.478333,312.776062 461.080780,351.741821 446.126465,390.889465 
	C436.763428,415.400116 427.563324,440.055817 420.182007,465.201782 
	C417.033661,475.927216 413.034546,485.959564 408.706207,496.140259 
	C402.149597,511.562103 396.893066,527.536194 391.069702,543.270325 
	C382.068695,567.590210 373.527649,592.094604 363.896393,616.162598 
	C356.354248,635.010010 345.047150,651.677612 330.405090,665.936462 
	C310.439514,685.379578 291.672180,705.842102 277.358185,729.949585 
	C267.021454,747.358521 261.952118,766.656311 258.005707,786.276611 
	C256.174652,795.380005 253.952713,804.540710 253.535522,813.749207 
	C253.203964,821.067627 255.343369,828.498535 256.391693,835.878662 
	C257.558685,844.094177 258.816589,852.298279 259.835175,860.532104 
	C260.049561,862.264954 259.622528,864.173218 259.108582,865.885864 
	C251.189911,892.274048 247.680374,897.647217 227.032547,915.216064 
	C225.519302,916.503784 223.922577,917.693481 222.100052,919.138550 
	C214.897202,915.076050 207.799606,910.863708 203.025818,903.337158 
	C202.998047,903.003357 202.973801,903.031433 202.973801,903.031372 
	C208.858368,902.353149 214.733154,901.567017 220.630722,901.032166 
	C225.030930,900.633057 230.069000,895.650208 229.989761,891.206055 
	C229.779205,879.397827 229.246918,867.590820 229.283569,855.784668 
	C229.300369,850.372681 230.994553,844.939941 230.794235,839.558899 
	C230.431290,829.808594 229.667892,820.023254 228.236984,810.376404 
	C226.760010,800.419006 228.614227,790.928101 230.389145,781.309448 
	C231.313995,776.297546 231.823669,771.209045 231.423965,765.794189 
	C230.506516,767.222229 229.589050,768.650208 227.823456,771.398315 
	C228.339447,767.593140 228.665375,765.189636 228.991287,762.786072 
	C228.567200,762.686584 228.143097,762.587097 227.718994,762.487549 
	C226.338547,768.154358 224.524338,773.757019 223.675461,779.502380 
	C222.270065,789.014282 220.813644,798.604065 220.613724,808.186768 
	C220.371964,819.775635 221.419235,831.391174 221.893463,842.995789 
	C221.918640,843.612305 221.802719,844.234619 220.779739,845.015869 
	C217.916458,830.740356 215.028061,816.469849 212.233780,802.180847 
	C211.989105,800.929749 212.095856,799.471924 212.488571,798.255066 
	C217.898239,781.493408 223.334045,764.739624 228.905014,748.031067 
	C229.897858,745.053345 231.256363,742.113708 232.941010,739.472168 
	C234.938293,736.340271 235.267685,733.790649 231.038132,731.235107 
	C235.072266,728.778076 238.504242,726.687744 242.318985,724.364319 
	C242.681000,725.982361 242.865540,726.807190 243.299179,728.745361 
	C246.535568,724.807678 249.552399,721.722534 251.890808,718.188477 
	C260.924103,704.535950 271.445221,692.335938 283.086731,680.704895 
	C298.222168,665.582886 313.277252,649.856567 323.310425,630.683411 
	C329.983948,617.930420 334.476776,604.037048 339.957672,590.659058 
	C344.874573,578.657715 350.116699,566.777466 354.616516,554.622131 
	C357.254730,547.495544 358.692749,539.927490 360.721619,532.572144 
	C366.906860,510.148071 375.915253,488.936523 387.968445,469.020813 
	C397.528503,453.224579 403.701843,436.116028 408.317413,418.272278 
	C411.380005,406.432373 415.706726,394.919464 419.460724,383.281372 
	C419.101013,383.327606 417.893402,383.482788 415.920349,383.736328 
	C420.046570,371.909332 423.911346,360.468689 428.027771,349.119324 
	C433.978546,332.712494 440.641541,316.539978 445.916229,299.923279 
	C448.147491,292.894196 447.602203,284.988068 448.371704,277.486023 
	C448.487640,276.355652 448.731812,275.183899 449.187866,274.151031 
	C457.314697,255.744934 464.591644,236.887711 477.959991,221.304321 
	C479.623474,219.365158 480.475983,216.620117 481.281067,214.112625 
	C481.575287,213.196213 480.802917,211.792633 480.231293,210.771255 
	C478.761841,208.145554 476.352966,205.793991 475.693085,203.007568 
	C471.373016,184.764969 466.868408,166.536942 463.481415,148.109833 
	C459.242554,125.048264 465.365021,103.956070 478.050568,84.577232 
	C480.054626,81.515747 482.346466,78.634781 484.221588,75.500618 
	C484.959106,74.267860 485.187500,72.568962 485.183472,71.083588 
	C485.170044,66.125130 482.724518,64.748848 477.673981,64.638802 
	C463.445679,64.328789 448.689697,65.021072 436.119415,56.868965 
	C427.951538,51.571918 420.846832,44.655128 413.066223,38.725971 
	C411.365417,37.429893 408.841583,36.776958 406.651367,36.656940 
	C402.850128,36.448647 399.014923,36.957886 395.191284,37.036415 
	C390.566132,37.131409 387.130493,38.641891 384.842865,43.131905 
	C382.284424,48.153389 378.956604,52.784512 375.939972,57.570614 
	C366.705078,72.222542 353.048187,78.734131 336.295868,82.324768 
	C319.197601,85.989578 302.739349,92.731735 286.137848,98.519424 
	C283.781464,99.340919 281.728027,102.102196 280.336609,104.442596 
	C272.735992,117.227081 265.011780,129.961945 258.042511,143.092026 
	C248.824722,160.458328 236.143311,174.841003 221.450806,187.568451 
	C207.113052,199.988571 195.118179,213.858047 190.071472,232.734039 
	C186.523895,246.002930 177.993408,256.721680 171.066238,268.223785 
	C162.309204,282.764191 152.615036,296.771606 144.452896,311.628510 
	C138.395340,322.654602 134.329529,334.758240 129.013397,346.213379 
	C124.538239,355.856445 119.484970,365.229767 114.794144,374.774841 
	C112.109070,380.238525 110.289482,386.249756 106.913979,391.222900 
	C101.980209,398.491913 95.933388,404.998383 90.478745,411.922638 
	C81.948700,422.750885 73.227783,433.447418 65.154419,444.609650 
	C60.449993,451.113922 58.946323,458.807220 60.446407,466.939880 
	C62.005821,475.394165 64.098701,483.848175 64.546028,492.376404 
	C64.866371,498.483582 62.859955,504.712830 61.295460,510.821106 
	C60.836811,503.855682 60.378162,496.890289 59.987785,490.961731 
	C57.432053,503.403809 54.733143,516.703857 51.963173,529.989075 
	C48.115238,548.444397 44.594231,566.905457 42.627811,585.727600 
	C41.883472,592.852173 44.495712,597.269592 48.172623,601.635193 
	C51.829277,605.976685 51.841698,611.006897 53.031891,615.917603 
	C53.592232,618.229431 54.537140,620.721863 56.059246,622.483093 
	C67.341187,635.537048 72.791496,650.845215 75.142189,667.750244 
	C77.069168,681.608215 77.446571,695.431458 89.030090,716.057556 
	C85.915482,713.129333 82.800865,710.201111 79.686256,707.272888 
	C79.354172,707.545837 79.022095,707.818787 78.690010,708.091736 
	C83.837585,719.450867 90.137573,729.968201 101.587219,737.318176 
	C102.300468,737.511230 102.539276,737.456726 102.778091,737.402283 
	C102.618790,737.171387 102.459496,736.940491 102.300186,736.709595 
	C102.154869,736.054626 102.009560,735.399597 101.921204,734.382080 
	C101.978157,734.019531 102.033722,733.960205 102.033722,733.960205 
	C110.160400,740.202576 117.973206,746.972778 128.273895,749.558044 
	C130.369217,750.083984 132.463867,750.612671 134.558838,751.140076 
	C134.768723,750.748779 134.978607,750.357544 135.188492,749.966309 
	C133.198593,747.865662 131.208694,745.765015 129.115082,743.324341 
	C129.011383,742.984436 129.063477,742.920654 129.063477,742.920654 
	C133.425323,745.874451 138.317123,748.280334 142.047134,751.887512 
	C152.213684,761.719482 161.895752,772.052734 171.741501,782.214783 
	C172.243500,782.733032 172.481277,783.507263 172.811920,784.107483 
	C172.408813,784.433716 172.227783,784.657166 172.157059,784.626465 
	C165.435730,781.709167 158.722778,778.772644 151.533844,775.545715 
	C150.769394,775.102234 150.480392,774.950317 150.062332,774.569336 
	C149.610931,774.239685 149.288605,774.139160 148.960358,773.863892 
	C148.848236,773.718201 148.742020,773.747192 148.635803,773.776184 
	C148.767502,773.843750 148.899216,773.911255 149.094849,774.220093 
	C149.315094,774.781128 149.564957,774.987793 149.990509,775.313171 
	C150.239334,775.840759 150.476135,776.061279 150.783051,776.206482 
	C152.220062,778.520996 153.657059,780.835571 155.064133,783.561096 
	C155.034210,783.972046 154.903244,784.109192 154.903259,784.109192 
	C148.342529,779.086792 141.995331,773.750122 135.172348,769.113647 
	C124.206650,761.662048 112.800667,754.858032 101.841522,747.397278 
	C97.495911,744.438843 93.847214,740.456726 89.440170,736.670532 
	C88.776360,736.437439 88.553589,736.474487 88.330811,736.511536 
	C88.502594,736.720642 88.674377,736.929749 88.846161,737.138855 
	C95.954170,744.485107 102.384132,752.679993 110.305176,759.008606 
	C129.364319,774.236084 147.602921,790.160156 161.760880,810.204834 
	C171.994934,824.694092 177.910690,840.559265 177.243515,858.729919 
	C177.095505,862.761108 179.390060,867.280457 181.636414,870.908508 
	C185.075455,876.463013 189.398315,881.456970 188.052292,887.393799 
	C185.441895,883.963989 182.888062,879.220642 179.083923,875.916931 
	C172.413605,870.123779 168.557632,863.331787 167.706818,854.588867 
	C165.985535,836.901062 155.754272,823.432373 144.863770,810.591125 
	C129.652313,792.654846 112.605904,776.661865 93.661209,762.525940 
	C77.256676,750.285461 66.700882,733.062012 59.152157,714.336243 
	C51.576138,695.542603 44.682461,676.435547 38.438141,657.158630 
	C35.023548,646.617432 27.632259,639.347717 20.871202,631.513672 
	C11.466024,620.615784 3.687481,609.082153 1.298182,594.237793 
	C1.000000,587.645569 1.000000,581.291199 0.999996,574.468384 
M97.764725,354.762756 
	C98.036095,354.648834 98.307457,354.534943 98.578819,354.421021 
	C98.216339,354.402496 97.853851,354.384003 97.764725,354.762756 
M87.532837,734.326477 
	C87.532837,734.326477 87.388901,734.637573 87.388901,734.637573 
	C87.388901,734.637573 87.696579,734.570679 87.532837,734.326477 
z"/>
<path fill="#EEA2A0" opacity="1.000000" stroke="none" 
	d="
M128.983765,743.015015 
	C128.520126,742.830322 128.084137,742.615051 127.648140,742.399780 
	C128.046249,742.410645 128.444336,742.421509 128.952957,742.676514 
	C129.063477,742.920654 129.011383,742.984436 128.983765,743.015015 
z"/>
<path fill="#EEA2A0" opacity="1.000000" stroke="none" 
	d="
M203.012344,902.991760 
	C202.910065,902.928711 202.793488,902.877258 202.676926,902.825806 
	C202.763092,902.794373 202.849228,902.763000 202.954590,902.881531 
	C202.973801,903.031433 202.998047,903.003357 203.012344,902.991760 
z"/>
<path fill="#EEA2A0" opacity="1.000000" stroke="none" 
	d="
M155.102448,783.906250 
	C155.353821,784.020203 155.536942,784.200012 155.720062,784.379761 
	C155.508194,784.411011 155.296326,784.442200 154.993851,784.291260 
	C154.903244,784.109192 155.034210,783.972046 155.102448,783.906250 
z"/>
<path fill="#EEA2A0" opacity="1.000000" stroke="none" 
	d="
M101.948547,734.047363 
	C101.634995,733.891418 101.351044,733.707764 101.033661,733.262024 
	C101.000221,733.000000 100.995735,733.005188 100.995743,733.005188 
	C101.281464,733.166016 101.567177,733.326843 101.943306,733.723999 
	C102.033722,733.960205 101.978157,734.019531 101.948547,734.047363 
z"/>
<path fill="#EEA2A0" opacity="1.000000" stroke="none" 
	d="
M101.003639,732.996704 
	C100.784645,732.887329 100.562241,732.781189 100.339828,732.675110 
	C100.524185,732.655762 100.708549,732.636353 100.944321,732.811096 
	C100.995735,733.005188 101.000221,733.000000 101.003639,732.996704 
z"/>
<path fill="#EEA2A0" opacity="1.000000" stroke="none" 
	d="
M499.982758,40.028915 
	C500.130524,40.151489 500.278290,40.274067 500.426056,40.396641 
	C500.341553,40.349384 500.257019,40.302124 500.085266,40.129887 
	C499.998016,40.004910 499.982758,40.028919 499.982758,40.028915 
z"/>
<path fill="#EEA2A0" opacity="1.000000" stroke="none" 
	d="
M500.009949,39.998116 
	C500.021912,39.991322 499.664490,39.761314 499.664490,39.761314 
	C499.664490,39.761314 499.880920,39.824799 499.931824,39.926857 
	C499.982758,40.028919 499.998016,40.004910 500.009949,39.998116 
z"/>
<path fill="#FFFFFF" opacity="1.000000" stroke="none" 
	d="
M478.002197,259.002228 
	C477.858368,259.441132 477.712341,259.877808 477.566315,260.314484 
	C477.548309,259.918823 477.530304,259.523193 477.753052,259.061249 
	C477.993835,258.994965 478.000000,259.000000 478.002197,259.002228 
z"/>
<path fill="#FFFFFF" opacity="1.000000" stroke="none" 
	d="
M97.628052,354.564117 
	C97.853851,354.384003 98.216339,354.402496 98.578827,354.421021 
	C98.307457,354.534943 98.036095,354.648834 97.628052,354.564117 
z"/>
<path fill="#FFFFFF" opacity="1.000000" stroke="none" 
	d="
M150.191406,774.798401 
	C150.480392,774.950317 150.769394,775.102234 151.208755,775.452271 
	C151.359116,775.650452 151.072845,775.927551 150.927948,776.067017 
	C150.476135,776.061279 150.239334,775.840759 150.062408,775.243530 
	C150.052170,774.942200 150.191406,774.798401 150.191406,774.798401 
z"/>
<path fill="#FFFFFF" opacity="1.000000" stroke="none" 
	d="
M149.980270,775.011841 
	C149.564957,774.987793 149.315094,774.781128 149.077560,774.233765 
	C148.996353,774.006165 148.966263,774.038635 148.966278,774.038574 
	C149.288605,774.139160 149.610931,774.239685 150.062347,774.569336 
	C150.191406,774.798401 150.052170,774.942200 149.980270,775.011841 
z"/>
<path fill="#FFFFFF" opacity="1.000000" stroke="none" 
	d="
M149.013641,773.992432 
	C148.899216,773.911255 148.767502,773.843750 148.635803,773.776184 
	C148.742020,773.747192 148.848236,773.718201 148.960358,773.863953 
	C148.966263,774.038635 148.996353,774.006165 149.013641,773.992432 
z"/>
<path fill="#FFFFFF" opacity="1.000000" stroke="none" 
	d="
M102.171318,736.837769 
	C102.459496,736.940491 102.618790,737.171387 102.778091,737.402283 
	C102.539276,737.456726 102.300468,737.511230 101.925552,737.396362 
	C101.789436,737.227051 102.042442,736.966003 102.171318,736.837769 
z"/>
<path fill="#FFFFFF" opacity="1.000000" stroke="none" 
	d="
M88.943710,737.045044 
	C88.674377,736.929749 88.502594,736.720642 88.330811,736.511536 
	C88.553589,736.474487 88.776360,736.437439 89.115295,736.579468 
	C89.231453,736.758606 89.041260,736.951233 88.943710,737.045044 
z"/>
<path fill="#FFFFFF" opacity="1.000000" stroke="none" 
	d="
M87.614708,734.448608 
	C87.696579,734.570679 87.388901,734.637573 87.388901,734.637573 
	C87.388901,734.637573 87.532837,734.326477 87.614708,734.448608 
z"/>
<path fill="#FFFFFF" opacity="1.000000" stroke="none" 
	d="
M502.048767,42.961754 
	C502.342682,43.061848 502.534027,43.261501 502.725372,43.461151 
	C502.487457,43.510342 502.249573,43.559532 501.878723,43.436947 
	C501.745789,43.265167 501.946198,43.061314 502.048767,42.961754 
z"/>
</svg>